<?xml version="1.0" encoding="utf-8"?>
<!-- Generator: Adobe Illustrator 16.0.0, SVG Export Plug-In . SVG Version: 6.00 Build 0)  -->
<!DOCTYPE svg PUBLIC "-//W3C//DTD SVG 1.1//EN" "http://www.w3.org/Graphics/SVG/1.1/DTD/svg11.dtd">
<svg version="1.1" id="Layer_1" xmlns="http://www.w3.org/2000/svg" xmlns:xlink="http://www.w3.org/1999/xlink" x="0px" y="0px"
	 width="544px" height="145px" viewBox="0 0 544 145" enable-background="new 0 0 544 145" xml:space="preserve">
<g>
</g>
<g id="Light">
	<path fill-rule="evenodd" clip-rule="evenodd" fill="#FFFFFF" d="M71.463,43.014c0.933-2.09,1.74-3.964,2.597-5.814
		c2.881-6.224,5.798-12.431,8.662-18.661c1.041-2.265,2.219-4.436,3.618-6.499c3.261-4.811,11.997-4.778,15.01,0.714
		c2.062,3.757,1.718,7.232,0.352,11.032c-1.563,4.346-3.575,8.502-5.086,12.871c-1.18,3.412-2.827,6.661-4.25,9.989
		c-0.294,0.688-0.514,1.408-0.767,2.113c0.146,0.076,0.293,0.151,0.439,0.226c1.033-1.672,2.069-3.342,3.097-5.017
		c3.259-5.317,6.109-10.89,9.912-15.87c1.157-1.514,2.555-2.429,4.558-2.303c1.429,0.09,2.872,0.079,4.302-0.001
		c1.363-0.075,2.285,0.579,3.355,1.338c3.709,2.636,2.742,6.399,2.59,9.947c-0.069,1.611-0.925,3.04-1.638,4.471
		c-2.768,5.553-5.55,11.1-8.305,16.66c-0.271,0.547-0.838,1.047-0.522,1.797c2.905-2.682,5.026-6.002,7.638-8.907
		c2.096-2.331,4.357-3.348,7.502-3.131c1.923,0.134,3.422,0.591,4.736,1.976c1.887,1.988,2.563,5.788,1.397,8.333
		c-1.573,3.435-4.098,6.244-6.169,9.347c-4.423,6.624-9.014,13.131-13.557,19.67c-1.085,1.563-2.244,3.074-3.401,4.582
		c-0.72,0.939-1.599,1.566-2.904,1.379c-1.196-0.169-1.14,0.707-1.141,1.517c-0.005,3.283-0.374,6.539-1.319,9.674
		c-1.882,6.235-5.913,10.91-11.064,14.729c-4.437,3.291-9.801,4.525-14.739,6.702c-6.278,2.77-12.834,4.779-19.339,6.929
		c-2.7,0.895-5.348,1.98-8.095,2.683c-4.47,1.145-6.19,0.791-8.309-3.451c-3.428-6.866-6.49-13.882-8.911-21.207
		c-1.714-5.185-3.553-10.314-4.744-15.652c-0.861-3.86-1.1-7.769-0.938-11.706c0.046-1.117-0.113-1.753-1.508-1.756
		c-1.549-0.003-2.402-1.19-2.861-2.541c-1.94-5.719-3.914-11.427-5.714-17.19c-1.119-3.584-2.467-7.084-2.21-11.049
		c0.239-3.695,4.484-7.509,7.375-7.549c0.657-0.008,1.329,0.087,1.97-0.016c4.477-0.719,6.835,2.022,8.656,5.419
		c2.021,3.768,3.87,7.63,5.751,11.471c0.55,1.124,0.94,1.676,2.391,0.871c2.215-1.229,4.668-2.023,7.225-2.323
		c0.822-0.097,1.154-0.515,1.147-1.293c-0.003-0.359,0.034-0.72-0.001-1.075c-0.327-3.288,0.909-6.252,1.857-9.288
		c0.635-2.035,1.108-4.12,1.655-6.183c1.603-6.053,3.155-12.119,5.057-18.088c0.971-3.05,1.518-6.22,2.824-9.183
		c1.737-3.947,3.917-5.236,8.239-5.53c3.885-0.266,6.516,1.129,8.327,4.478c0.442,0.816,0.67,1.59,0.764,2.508
		c0.512,4.981-0.917,9.638-2.247,14.321c-1.084,3.816-2.135,7.642-3.229,11.455C71.323,41.545,71.066,42.117,71.463,43.014z
		 M53.963,129.103c0.966,0.222,1.662-0.524,2.485-0.776c4.394-1.343,8.886-2.441,12.964-4.664c0.476-0.219,0.953-0.438,1.428-0.658
		c1.04,0.374,1.809-0.369,2.629-0.72c3.542-1.516,7.321-2.482,10.622-4.559c0.704-0.097,1.395-0.157,2.053-0.528
		c3.703-2.083,6.791-4.84,9.115-8.393c3.952-6.043,5.148-12.652,3.439-19.64c-1.562-6.381-5.152-11.325-11.326-14.054
		c-3.746-1.655-7.638-1.71-11.509-0.541c-3.731,1.126-4.389-0.343-5.368-3.013c-0.287-0.783-0.502-1.566-1.054-2.233
		c-4.648-5.608-10.855-7.354-17.807-7.09c-2.553,0.096-5.024,0.807-7.447,1.652c-9.132,3.183-13.627,10.051-14.224,19.589
		c-0.41,6.564,1.516,12.718,3.376,18.872c0.553,1.829,0.624,3.922,2.382,5.22c-0.279,0.206-0.283,0.446-0.194,0.776
		c2.105,7.781,5.825,14.898,9.146,22.18c0.471,1.033,1.313,1.327,2.367,0.97c1.629-0.551,3.25-1.127,4.874-1.693
		C52.742,129.993,53.373,129.608,53.963,129.103z M98.766,18.502c0.621-1.725-0.509-2.949-1.413-4.155
		c-1.688-2.252-4.44-2.462-6.667-0.74c-1.712,1.324-2.479,3.263-3.38,5.079c-2.456,4.942-4.715,9.978-6.959,15.023
		c-2.988,6.717-6.131,13.367-9.279,20.011c-0.522,1.103-1.12,2.219-2.03,3.113c-0.764,0.751-1.669,0.97-2.618,0.641
		c-0.945-0.327-1.611-1.073-1.706-2.103c-0.182-1.953-0.277-3.938,0.239-5.844c2.316-8.549,4.729-17.072,7.022-25.626
		c0.597-2.223,1.468-4.382,1.417-6.783c-0.044-2.124-2.15-4.873-4.277-5.266c-2.159-0.398-4.729,1.148-5.688,3.397
		c-0.631,1.48-1.051,3.025-1.481,4.574c-1.552,5.599-3.206,11.169-4.789,16.758c-1.551,5.475-3.002,10.979-4.614,16.435
		c-0.977,3.303-1.665,5.536,3.679,5.537c6.828,0.002,12.517,2.82,16.475,8.48c1.532,2.192,3.181,3.231,5.884,2.924
		c2.823-0.32,5.713-0.339,8.452,0.57c8.641,2.87,13.348,9.292,15.729,17.734c0.159,0.565,0.053,1.227,0.863,1.367
		c0.801,0.14,0.994-0.525,1.316-0.985c1.293-1.858,2.556-3.734,3.848-5.587c5.798-8.326,11.615-16.635,17.393-24.971
		c1.47-2.119,1.437-4.256,0.06-5.478c-1.693-1.505-3.979-1.222-5.73,0.811c-3.758,4.357-7.452,8.769-11.215,13.123
		c-1.861,2.154-3.481,4.539-5.823,6.244c-1.697,1.233-3.47,0.832-4.097-0.986c-0.379-1.098,0.251-2.085,0.706-3.023
		c2.142-4.418,4.37-8.793,6.489-13.22c1.333-2.784,2.598-5.624,4.019-8.339c1.759-3.36,3.463-6.752,5.141-10.15
		c1.448-2.931,0.619-6.25-1.739-7.172c-2.151-0.84-5.012-0.98-7.094,2.477c-3.07,5.098-6.041,10.254-9.146,15.331
		c-2.378,3.886-4.693,7.813-7.154,11.646c-1.377,2.148-2.479,4.486-4.235,6.382c-1.411,1.526-3,1.345-4.066-0.439
		c-0.612-1.022-0.368-2.046-0.12-3.103c1.294-5.516,3.854-10.561,5.923-15.783c3.044-7.683,6.309-15.278,9.353-22.961
		C98.07,21.885,99.318,20.434,98.766,18.502z M23.504,46.973c-3.793,0.014-6.648,3.606-5.74,7.131
		c0.399,1.548,0.95,3.059,1.448,4.581c2.013,6.148,4.032,12.294,6.047,18.44c0.127,0.389,0.159,0.908,0.667,0.946
		c0.605,0.049,0.505-0.58,0.639-0.915c1.172-2.937,2.399-5.845,4.276-8.417c1.009-1.382,2.066-2.732,3.173-4.035
		c0.446-0.527,0.599-0.945,0.277-1.579c-2.293-4.509-4.183-9.225-6.839-13.54C26.566,48.144,25.501,46.63,23.504,46.973z"/>
	<path fill-rule="evenodd" clip-rule="evenodd" fill="#ED905E" d="M98.766,18.502c0.552,1.931-0.696,3.383-1.313,4.94
		c-3.044,7.683-6.309,15.278-9.353,22.961c-2.069,5.222-4.629,10.267-5.923,15.783c-0.248,1.057-0.492,2.081,0.12,3.103
		c1.067,1.784,2.655,1.966,4.066,0.439c1.756-1.896,2.858-4.234,4.235-6.382c2.461-3.833,4.775-7.76,7.154-11.646
		c3.105-5.077,6.077-10.233,9.146-15.331c2.082-3.458,4.942-3.317,7.094-2.477c2.358,0.922,3.187,4.242,1.739,7.172
		c-1.678,3.398-3.382,6.79-5.141,10.15c-1.42,2.715-2.686,5.555-4.019,8.339c-2.119,4.427-4.347,8.802-6.489,13.22
		c-0.455,0.938-1.085,1.925-0.706,3.023c0.627,1.818,2.4,2.219,4.097,0.986c2.342-1.705,3.962-4.09,5.823-6.244
		c3.763-4.354,7.458-8.765,11.215-13.123c1.752-2.032,4.037-2.316,5.73-0.811c1.377,1.222,1.41,3.359-0.06,5.478
		c-5.778,8.336-11.595,16.645-17.393,24.971c-1.292,1.853-2.555,3.729-3.848,5.587c-0.323,0.46-0.515,1.125-1.316,0.985
		c-0.81-0.141-0.705-0.802-0.863-1.367c-2.382-8.442-7.089-14.864-15.729-17.734c-2.738-0.909-5.628-0.891-8.452-0.57
		c-2.703,0.307-4.352-0.732-5.884-2.924c-3.958-5.66-9.647-8.478-16.475-8.48c-5.344-0.001-4.656-2.233-3.679-5.537
		c1.611-5.456,3.063-10.959,4.614-16.435c1.583-5.589,3.236-11.16,4.789-16.758c0.43-1.549,0.85-3.094,1.481-4.574
		c0.958-2.249,3.529-3.795,5.688-3.397c2.126,0.394,4.233,3.143,4.277,5.266c0.05,2.401-0.821,4.56-1.417,6.783
		c-2.293,8.554-4.706,17.078-7.022,25.626c-0.517,1.906-0.421,3.891-0.239,5.844c0.095,1.03,0.761,1.776,1.706,2.103
		c0.949,0.329,1.854,0.11,2.618-0.641c0.91-0.894,1.507-2.01,2.03-3.113c3.148-6.645,6.291-13.294,9.279-20.011
		c2.244-5.045,4.503-10.081,6.959-15.023c0.902-1.815,1.668-3.755,3.38-5.079c2.227-1.722,4.98-1.512,6.667,0.74
		C98.257,15.553,99.387,16.778,98.766,18.502z"/>
	<path fill-rule="evenodd" clip-rule="evenodd" fill="#CC649C" d="M35.722,107.566c-1.758-1.298-1.829-3.391-2.382-5.22
		c-1.86-6.154-3.786-12.308-3.376-18.872c0.597-9.538,5.092-16.406,14.224-19.589c2.422-0.846,4.894-1.556,7.447-1.652
		c6.952-0.263,13.159,1.482,17.807,7.09c0.552,0.667,0.767,1.45,1.054,2.233c0.979,2.67,1.637,4.139,5.368,3.013
		c3.871-1.169,7.763-1.114,11.509,0.541c6.174,2.729,9.765,7.673,11.326,14.054c1.709,6.987,0.512,13.597-3.439,19.64
		c-2.324,3.553-5.412,6.31-9.115,8.393c-0.658,0.371-1.349,0.432-2.053,0.528c-0.352-0.247-0.674-0.541-0.667-1
		c0.03-2.267-0.243-4.546,0.137-6.795c0.447-2.645-0.351-3.913-2.952-4.575c-2.089-0.532-4.145-0.082-6.222,0.071
		c-3.217,0.234-3.163,0.185-3.245,3.44c-0.12,4.713,0.345,9.435-0.302,14.137c-0.476,0.22-0.952,0.439-1.428,0.658
		c-1.242-0.392-1.053-1.409-1.05-2.364c0.021-7.889,0.046-15.779,0.042-23.67c0-2.335-0.827-3.325-2.895-3.18
		c-3.287,0.229-6.553,0.198-9.839-0.009c-2.167-0.136-2.74,0.59-2.749,2.759c-0.007,1.734,0.07,3.472-0.022,5.199
		c-0.081,1.525,0.432,2.284,2.027,2.531c1.892,0.291,2.342,1.237,2.077,3.198c-0.558,4.127-0.958,8.28-1.592,12.396
		c-0.442,2.865-0.145,5.86-1.447,8.58c-0.59,0.506-1.221,0.891-2.05,0.696c0.95-5.919,1.406-11.907,2.517-17.806
		c0.672-3.571-0.14-4.494-3.69-4.332c-4.763,0.002-9.526,0.002-14.289,0.005C36.208,107.635,35.964,107.601,35.722,107.566z
		 M77.676,102.217c4.501,0.009,6.806-2.143,6.814-6.358c0.009-4.193-2.397-6.39-6.688-6.613c-4.207-0.219-6.853,3.387-6.886,6.633
		C70.879,99.45,73.48,102.576,77.676,102.217z M50.069,95.857c0.009-3.167-1.538-5.984-3.723-6.782
		c-3.298-1.202-6.693,0.202-8.228,3.402c-1.57,3.272-0.35,7.86,2.525,9.494C45.255,104.592,50.053,101.479,50.069,95.857z
		 M60.936,91.44c3.748-0.007,5.799-1.11,6.655-3.643c0.878-2.592,0.415-4.949-1.456-6.951c-2.026-2.169-4.635-2.376-7.271-1.682
		c-3.423,0.901-4.858,3.959-4.159,8.316C55.143,90.205,57.096,91.444,60.936,91.44z"/>
	<path fill-rule="evenodd" clip-rule="evenodd" fill="#FDFBFD" d="M53.963,129.103c1.303-2.72,1.005-5.715,1.447-8.58
		c0.634-4.115,1.034-8.269,1.592-12.396c0.265-1.961-0.186-2.907-2.077-3.198c-1.596-0.247-2.108-1.006-2.027-2.531
		c0.093-1.728,0.016-3.465,0.022-5.199c0.009-2.169,0.583-2.895,2.749-2.759c3.286,0.207,6.552,0.238,9.839,0.009
		c2.068-0.146,2.895,0.845,2.895,3.18c0.004,7.891-0.021,15.781-0.042,23.67c-0.002,0.955-0.191,1.973,1.05,2.364
		c-4.079,2.223-8.571,3.321-12.964,4.664C55.625,128.578,54.929,129.324,53.963,129.103z"/>
	<path fill-rule="evenodd" clip-rule="evenodd" fill="#FDFBFD" d="M35.722,107.566c0.243,0.034,0.486,0.068,0.729,0.1
		c0.508,0.458,1.131,0.271,1.707,0.274c3.328,0.018,6.656,0.032,9.983-0.004c0.865-0.011,1.784,0.281,2.599-0.275
		c3.55-0.162,4.362,0.761,3.69,4.332c-1.11,5.898-1.566,11.887-2.517,17.806c-1.623,0.566-3.244,1.143-4.873,1.693
		c-1.054,0.357-1.896,0.063-2.367-0.97c-3.321-7.281-7.04-14.398-9.146-22.18C35.439,108.013,35.442,107.772,35.722,107.566z"/>
	<path fill-rule="evenodd" clip-rule="evenodd" fill="#ED905E" d="M23.504,46.973c1.997-0.343,3.062,1.17,3.949,2.612
		c2.656,4.315,4.546,9.031,6.839,13.54c0.322,0.634,0.169,1.052-0.277,1.579c-1.107,1.302-2.164,2.652-3.173,4.035
		c-1.877,2.572-3.104,5.481-4.276,8.417c-0.133,0.335-0.034,0.964-0.639,0.915c-0.508-0.038-0.54-0.558-0.667-0.946
		c-2.016-6.146-4.035-12.292-6.047-18.44c-0.499-1.522-1.049-3.032-1.448-4.581C16.856,50.58,19.711,46.987,23.504,46.973z"/>
	<path fill-rule="evenodd" clip-rule="evenodd" fill="#FDFBFD" d="M70.84,123.004c0.647-4.702,0.182-9.424,0.302-14.137
		c0.082-3.256,0.028-3.206,3.245-3.44c2.078-0.153,4.133-0.604,6.222-0.071c2.601,0.662,3.399,1.931,2.952,4.575
		c-0.38,2.249-0.107,4.528-0.137,6.795c-0.007,0.459,0.315,0.753,0.667,1c-3.301,2.076-7.08,3.043-10.622,4.559
		C72.649,122.635,71.88,123.378,70.84,123.004z"/>
	<path fill-rule="evenodd" clip-rule="evenodd" fill="#FDFBFD" d="M77.676,102.217c-4.196,0.359-6.797-2.767-6.76-6.339
		c0.033-3.246,2.679-6.852,6.886-6.633c4.291,0.224,6.697,2.42,6.688,6.613C84.482,100.074,82.177,102.226,77.676,102.217z"/>
	<path fill-rule="evenodd" clip-rule="evenodd" fill="#FDFBFD" d="M50.069,95.857c-0.017,5.622-4.814,8.734-9.426,6.114
		c-2.875-1.634-4.096-6.222-2.525-9.494c1.535-3.2,4.93-4.604,8.228-3.402C48.532,89.873,50.079,92.69,50.069,95.857z"/>
	<path fill-rule="evenodd" clip-rule="evenodd" fill="#FDFBFD" d="M60.936,91.44c-3.84,0.004-5.793-1.235-6.23-3.959
		c-0.699-4.357,0.735-7.415,4.159-8.316c2.636-0.694,5.245-0.487,7.271,1.682c1.871,2.002,2.333,4.359,1.456,6.951
		C66.735,90.33,64.684,91.434,60.936,91.44z"/>
	<path fill-rule="evenodd" clip-rule="evenodd" fill="#F1EFE5" d="M50.739,107.661c-0.815,0.557-1.734,0.265-2.599,0.275
		c-3.327,0.036-6.655,0.021-9.983,0.004c-0.575-0.003-1.199,0.184-1.707-0.274C41.213,107.663,45.977,107.663,50.739,107.661z"/>
</g>
<g>
	<path fill="#FFFFFF" d="M212.304,28.499c0,0.994-0.165,2.04-0.495,3.138c-0.33,1.098-0.835,2.18-1.515,3.247
		s-1.551,2.097-2.611,3.091c-1.061,0.994-2.333,1.884-3.817,2.671s-3.173,1.445-5.068,1.973c-1.896,0.528-4.028,0.86-6.397,0.997
		c1.43,0.533,2.625,1.219,3.585,2.059c0.96,0.84,1.762,1.777,2.406,2.812c0.644,1.035,1.188,2.168,1.632,3.402
		c0.445,1.234,0.775,2.383,0.991,3.445s0.451,2.085,0.706,3.066c0.254,0.982,0.526,1.863,0.816,2.643
		c0.29,0.781,0.655,1.404,1.095,1.872c0.44,0.468,1.03,0.702,1.771,0.702c0.701,0,1.47-0.119,2.305-0.356
		c0.835-0.237,1.691-0.572,2.568-1.005c0.876-0.433,1.743-0.949,2.599-1.547c0.856-0.598,1.655-1.258,2.398-1.98l3.589,6.064
		c0-0.021-0.196,0.108-0.588,0.387c-0.392,0.278-0.939,0.629-1.64,1.052c-0.701,0.423-1.531,0.887-2.491,1.393
		c-0.959,0.505-2.017,0.975-3.171,1.408c-1.156,0.433-2.378,0.794-3.667,1.083c-1.29,0.289-2.604,0.433-3.943,0.433
		c-1.514,0-2.805-0.371-3.873-1.113c-1.068-0.743-1.975-1.722-2.722-2.938s-1.369-2.604-1.867-4.16s-0.901-3.057-1.212-4.5
		s-0.646-3-1.005-4.673c-0.359-1.672-0.743-3.153-1.15-4.443s-0.908-2.306-1.499-3.049c-0.592-0.742-1.333-1.114-2.22-1.114h-2.152
		c-0.637,4.459-1.246,8.485-1.824,12.078c-0.579,3.593-1.346,6.643-2.301,9.149c-0.955,2.505-2.151,4.421-3.589,5.747
		s-3.198,1.988-5.282,1.988c-1.65,0-3.161-0.314-4.533-0.943c-1.372-0.629-2.61-1.491-3.713-2.583
		c-1.104-1.094-2.068-2.373-2.893-3.837c-0.825-1.464-1.511-3.037-2.058-4.719c-0.547-1.681-0.959-3.419-1.238-5.213
		s-0.417-3.579-0.417-5.353c0-3.197,0.397-6.328,1.192-9.391s1.942-5.956,3.44-8.679c1.498-2.723,3.31-5.224,5.438-7.503
		c2.127-2.279,4.519-4.25,7.173-5.91c2.654-1.66,5.546-2.955,8.676-3.883c3.129-0.928,6.44-1.393,9.931-1.393
		c1.545,0,3.08,0.145,4.605,0.433c1.525,0.289,2.977,0.712,4.358,1.269c1.381,0.557,2.664,1.249,3.848,2.073
		c1.185,0.825,2.205,1.769,3.06,2.831c0.855,1.063,1.53,2.243,2.024,3.543C212.057,25.56,212.304,26.973,212.304,28.499z
		 M193.111,21.042c-3.411,0-6.453,0.475-9.13,1.423c-2.676,0.949-5.027,2.228-7.053,3.837c-2.025,1.609-3.751,3.476-5.177,5.601
		s-2.583,4.353-3.472,6.683c-0.889,2.332-1.535,4.693-1.938,7.085c-0.403,2.394-0.604,4.672-0.604,6.838
		c0,1.671,0.144,3.347,0.433,5.028c0.289,1.682,0.743,3.192,1.361,4.533c0.619,1.341,1.418,2.429,2.398,3.265
		c0.979,0.835,2.161,1.253,3.543,1.253c0.701,0,1.32-0.273,1.856-0.82c0.536-0.546,1.01-1.279,1.423-2.197
		c0.412-0.917,0.773-1.98,1.083-3.187c0.309-1.207,0.529-2.461,0.658-3.765c0.13-1.303,0.26-2.617,0.392-3.94
		c0.132-1.324,0.255-2.56,0.37-3.709c0.114-1.148,0.195-2.167,0.242-3.055c0.047-0.887,0.071-1.565,0.071-2.034
		c-1.588-0.725-2.796-1.401-3.621-2.029c-0.825-0.627-1.237-1.353-1.237-2.176c0-0.228,0.015-0.501,0.046-0.82
		c0.03-0.319,0.097-0.615,0.199-0.888c0.102-0.273,0.25-0.507,0.443-0.7s0.454-0.291,0.781-0.291c0.143,0,0.429-0.008,0.857-0.025
		s0.877-0.038,1.347-0.061c0.47-0.023,0.903-0.043,1.301-0.061c0.398-0.017,0.658-0.025,0.781-0.025l0.031,0.048
		c0.021-0.451,0.057-0.935,0.108-1.452c0.051-0.517,0.14-1.105,0.265-1.766c0.125-0.66,0.306-1.325,0.546-1.996
		c0.239-0.67,0.556-1.279,0.951-1.826c0.395-0.546,0.868-0.99,1.419-1.331c0.551-0.34,1.222-0.51,2.012-0.51
		c1.04,0,1.731,0.239,2.074,0.717c0.343,0.478,0.515,1.089,0.515,1.833v0.287c-0.041,0.807-0.272,1.875-0.695,3.203
		c-0.423,1.328-0.815,2.863-1.178,4.604c3.537-0.063,6.456-0.409,8.756-1.038c2.3-0.628,4.123-1.421,5.468-2.38
		c1.345-0.958,2.29-2.007,2.832-3.146c0.542-1.139,0.813-2.242,0.813-3.307c0-1.01-0.242-1.98-0.726-2.909
		c-0.484-0.928-1.199-1.748-2.146-2.459c-0.947-0.712-2.121-1.279-3.521-1.702C196.59,21.254,194.964,21.042,193.111,21.042z"/>
	<path fill="#FFFFFF" d="M232.137,43.722c0.598,1.197,1.047,2.46,1.346,3.791c0.299,1.331,0.448,2.831,0.448,4.502
		c0,1.217-0.134,2.444-0.402,3.682c-0.269,1.237-0.655,2.434-1.161,3.589c-0.505,1.156-1.125,2.239-1.856,3.249
		c-0.732,1.011-1.568,1.887-2.506,2.63s-1.964,1.331-3.079,1.764c-1.114,0.433-2.3,0.65-3.558,0.65
		c-1.815,0-3.368-0.397-4.657-1.191c-1.29-0.793-2.347-1.83-3.171-3.109c-0.825-1.279-1.429-2.723-1.81-4.332
		c-0.382-1.609-0.572-3.238-0.572-4.889c0-2.723,0.34-5.069,1.021-7.039c0.681-1.97,1.655-3.682,2.924-5.136s2.82-2.599,4.657-3.435
		c1.835-0.835,3.898-1.253,6.188-1.253c1.959,0,3.795,0.304,5.508,0.913c1.712,0.608,3.315,1.423,4.812,2.444
		c1.495,1.021,2.888,2.305,4.177,3.852c1.289,1.547,2.491,3.022,3.605,4.425l-0.588,4.363c-0.557-0.743-1.31-1.547-2.259-2.414
		c-0.949-0.866-1.955-1.826-3.017-2.877c-1.063-1.052-2.109-1.944-3.141-2.676c-1.032-0.732-1.918-1.346-2.661-1.841L232.137,43.722
		z M222.576,61.637c0.701,0,1.382-0.355,2.042-1.067c0.66-0.711,1.237-1.609,1.732-2.692s0.892-2.393,1.191-3.93
		c0.299-1.536,0.449-2.903,0.449-4.1c0-0.949-0.073-1.831-0.217-2.646c-0.145-0.814-0.361-1.521-0.65-2.12
		c-0.289-0.598-0.66-1.072-1.114-1.423c-0.454-0.35-1-0.526-1.64-0.526c-0.846,0-1.651,0.361-2.414,1.083
		c-0.763,0.722-1.434,1.646-2.011,2.77c-0.578,1.125-1.032,2.367-1.361,3.728c-0.33,1.362-0.495,2.898-0.495,4.61
		c0,0.867,0.082,1.682,0.248,2.444c0.165,0.764,0.422,1.429,0.773,1.996c0.351,0.567,0.815,1.021,1.393,1.361
		C221.081,61.467,221.772,61.637,222.576,61.637z"/>
	<path fill="#FFFFFF" d="M249.835,42.586c1.155-1.418,2.212-2.558,3.172-3.419c0.959-0.861,1.913-1.292,2.862-1.292
		c1.217,0,2.3,0.265,3.249,0.795c0.948,0.531,1.753,1.235,2.413,2.112c0.66,0.877,1.166,1.888,1.517,3.03
		c0.35,1.143,0.526,2.336,0.526,3.581c0,1.06-0.042,2.063-0.124,3.008s-0.232,1.87-0.449,2.774
		c-0.216,0.904-0.516,1.803-0.897,2.696c-0.382,0.894-0.882,1.818-1.501,2.774c0.743-0.436,1.496-0.862,2.259-1.277
		c0.763-0.416,1.532-0.873,2.305-1.372s1.552-1.055,2.336-1.667c0.784-0.613,1.588-1.335,2.413-2.167l2.383,5.143
		c-1.135,1.036-2.264,1.937-3.388,2.704c-1.125,0.767-2.28,1.435-3.465,2.004c-1.187,0.569-2.424,1.062-3.713,1.476
		s-2.656,0.787-4.1,1.119c-0.352,0.351-0.832,0.701-1.441,1.052c-0.609,0.351-1.214,0.67-1.813,0.959
		c-0.683,0.33-1.416,0.649-2.2,0.959h-0.775c-3.223,0-4.968-0.041-5.237-0.124c-2.479-0.681-4.039-1.217-4.679-1.609
		c-1.178-0.763-2.314-1.547-3.409-2.352c0.062-1.671,0.186-3.56,0.372-5.665c0.145-1.835,0.363-4.074,0.655-6.714
		c0.417-3.897,0.814-6.754,1.19-8.57c0.188-2.042,0.439-4.3,0.752-6.775c0.335-1.893,0.753-4.258,1.256-7.097
		s1.172-5.46,2.007-7.863c0.835-2.403,1.764-4.543,2.785-6.42c1.021-1.876,2.135-3.383,3.342-4.517s2.512-1.702,3.915-1.702
		c1.567,0,2.826,0.269,3.775,0.805c0.949,0.537,1.681,1.264,2.197,2.181c0.516,0.918,0.856,1.996,1.021,3.233
		c0.165,1.238,0.248,2.558,0.248,3.96c0,1.954-0.366,3.968-1.098,6.045c-0.732,2.077-1.687,4.148-2.862,6.214
		s-2.491,4.087-3.945,6.06c-1.455,1.974-2.904,3.835-4.348,5.582L249.835,42.586z M252.618,44.805c-0.723,0-1.445,0.152-2.167,0.456
		s-1.394,0.775-2.013,1.414s-1.166,1.462-1.641,2.468c-0.929,1.949-1.279,3.143-1.052,3.583c0,0.042-0.144,1.281-0.43,3.717
		c-0.114,0.922-0.208,1.741-0.284,2.457c-0.103,0.831-0.193,1.609-0.27,2.335c0.681,0.206,1.361,0.382,2.042,0.526
		c0.598,0.124,1.227,0.134,1.888,0.031c0.66-0.103,1.289-0.155,1.887-0.155c0.701,0,1.341-0.207,1.918-0.623
		c0.577-0.416,1.093-0.972,1.547-1.668s0.846-1.491,1.176-2.384s0.598-1.823,0.805-2.79c0.206-0.966,0.361-1.922,0.464-2.868
		c0.103-0.945,0.155-1.813,0.155-2.603c0-0.52-0.057-1.013-0.17-1.48c-0.114-0.468-0.32-0.878-0.62-1.231
		c-0.299-0.353-0.712-0.639-1.238-0.857C254.088,44.915,253.422,44.805,252.618,44.805z M255.653,16.586
		c0-0.082-0.016-0.257-0.046-0.526c-0.031-0.268-0.102-0.546-0.214-0.835c-0.113-0.289-0.271-0.546-0.475-0.773
		c-0.205-0.227-0.481-0.34-0.828-0.34c-0.409,0-0.833,0.294-1.272,0.883c-0.439,0.588-0.874,1.383-1.303,2.384
		c-0.429,1.001-0.848,2.157-1.256,3.468c-0.409,1.312-0.808,2.684-1.196,4.119c-0.389,1.435-0.738,2.899-1.048,4.394
		c-0.311,1.494-0.604,2.902-0.878,4.224c-0.276,1.322-0.528,2.534-0.756,3.634c-0.229,1.101-0.415,1.994-0.557,2.68
		c0.553-1.075,1.172-2.191,1.858-3.348c0.686-1.158,1.377-2.36,2.074-3.608c0.696-1.248,1.377-2.526,2.043-3.836
		c0.666-1.31,1.27-2.65,1.813-4.022c0.542-1.372,0.993-2.764,1.352-4.177C255.319,19.49,255.55,18.052,255.653,16.586z"/>
	<path fill="#FFFFFF" d="M288.822,43.722c0.598,1.197,1.047,2.46,1.346,3.791s0.448,2.831,0.448,4.502
		c0,1.217-0.134,2.444-0.401,3.682c-0.27,1.237-0.656,2.434-1.161,3.589c-0.505,1.156-1.124,2.239-1.856,3.249
		c-0.732,1.011-1.568,1.887-2.506,2.63c-0.939,0.743-1.965,1.331-3.079,1.764s-2.3,0.65-3.558,0.65
		c-1.816,0-3.368-0.397-4.657-1.191c-1.29-0.793-2.347-1.83-3.171-3.109c-0.825-1.279-1.429-2.723-1.81-4.332
		c-0.382-1.609-0.572-3.238-0.572-4.889c0-2.723,0.34-5.069,1.021-7.039c0.681-1.97,1.655-3.682,2.924-5.136
		c1.268-1.454,2.821-2.599,4.657-3.435s3.898-1.253,6.188-1.253c1.96,0,3.796,0.304,5.508,0.913
		c1.713,0.608,3.316,1.423,4.813,2.444c1.494,1.021,2.887,2.305,4.178,3.852c1.289,1.547,2.49,3.022,3.604,4.425l-0.588,4.363
		c-0.557-0.743-1.311-1.547-2.258-2.414c-0.949-0.866-1.955-1.826-3.018-2.877c-1.063-1.052-2.109-1.944-3.141-2.676
		c-1.031-0.732-1.918-1.346-2.661-1.841L288.822,43.722z M279.261,61.637c0.701,0,1.382-0.355,2.042-1.067
		c0.66-0.711,1.238-1.609,1.732-2.692c0.496-1.083,0.893-2.393,1.191-3.93c0.299-1.536,0.449-2.903,0.449-4.1
		c0-0.949-0.072-1.831-0.217-2.646c-0.145-0.814-0.361-1.521-0.65-2.12c-0.289-0.598-0.66-1.072-1.113-1.423
		c-0.454-0.35-1-0.526-1.64-0.526c-0.847,0-1.651,0.361-2.413,1.083c-0.764,0.722-1.435,1.646-2.012,2.77
		c-0.578,1.125-1.031,2.367-1.361,3.728c-0.33,1.362-0.495,2.898-0.495,4.61c0,0.867,0.082,1.682,0.247,2.444
		c0.166,0.764,0.423,1.429,0.773,1.996c0.352,0.567,0.815,1.021,1.393,1.361C277.766,61.467,278.457,61.637,279.261,61.637z"/>
	<path fill="#FFFFFF" d="M312.184,26.39c-1.342,2.446-2.539,4.281-3.59,5.504c-1.053,1.223-1.908,1.834-2.568,1.834
		c-0.908,0-1.361-1.041-1.361-3.125c0-2.021,0.289-3.836,0.865-5.446c0.578-1.609,1.389-3.037,2.43-4.285
		c1.043-1.248,2.279-2.31,3.713-3.187c1.434-0.876,3.002-1.598,4.703-2.166c1.701-0.567,3.502-0.985,5.4-1.253
		c1.896-0.268,3.846-0.402,5.848-0.402c2.33,0,4.672,0.17,7.023,0.51s4.609,0.818,6.775,1.435c2.166,0.618,4.188,1.363,6.064,2.238
		s3.512,1.842,4.904,2.901c1.393,1.06,2.486,2.207,3.279,3.442c0.795,1.235,1.191,2.521,1.191,3.858
		c0,1.593-0.346,3.165-1.035,4.716c-0.691,1.551-1.775,2.952-3.25,4.203c-1.475,1.251-3.361,2.281-5.662,3.087
		c-2.301,0.807-5.059,1.241-8.277,1.303c2.043,0,3.826,0.333,5.354,0.996c1.527,0.665,2.805,1.56,3.838,2.688
		c1.031,1.128,1.805,2.478,2.32,4.048c0.516,1.57,0.773,3.167,0.773,4.79c0,1.279-0.176,2.578-0.527,3.897
		c-0.35,1.319-0.877,2.588-1.578,3.805c-0.701,1.218-1.576,2.359-2.629,3.425c-1.053,1.066-2.285,1.995-3.697,2.786
		c-1.414,0.791-3.008,1.416-4.781,1.872s-3.723,0.685-5.848,0.685c-1.342,0-2.754-0.081-4.238-0.243
		c-1.486-0.162-2.986-0.381-4.502-0.657c-1.518-0.277-3.008-0.605-4.471-0.985c-1.467-0.381-2.848-0.791-4.146-1.228
		c-0.578-0.133-1.09-0.333-1.531-0.6c-0.445-0.266-0.666-0.743-0.666-1.428c0-3.466,0.088-7.016,0.264-10.649
		c0.174-3.634,0.529-7.23,1.066-10.791c0.537-3.56,1.258-6.656,2.166-9.287s2.197-5.189,3.867-7.674
		c1.465-1.015,2.795-1.522,3.992-1.522c1.506,0,2.764,0.849,3.775,2.547c-0.949,1.296-1.76,2.739-2.43,4.328
		c-0.67,1.59-1.182,3.001-1.531,4.235c-0.352,1.234-0.666,2.76-0.943,4.579c-0.279,1.819-0.502,3.597-0.666,5.332
		c-0.104,0.983-0.191,2.076-0.264,3.278c-0.072,1.203-0.139,2.379-0.201,3.529c-0.061,1.15-0.107,2.295-0.139,3.435
		c-0.031,1.14-0.047,2.232-0.047,3.277c0,0.169,0,0.401,0,0.696c0,0.295,0.027,0.601,0.078,0.917
		c0.051,0.316,0.119,0.606,0.201,0.87c0.082,0.263,0.205,0.458,0.371,0.584c1.258,0.422,2.609,0.781,4.053,1.076
		c1.445,0.295,2.889,0.442,4.332,0.442c1.754,0,3.455-0.216,5.105-0.648s3.115-1.117,4.395-2.055
		c1.277-0.938,2.305-2.14,3.078-3.604c0.773-1.465,1.16-3.336,1.16-5.613c0-1.222-0.227-2.239-0.68-3.051
		c-0.455-0.811-1.049-1.491-1.779-2.039c-0.732-0.548-1.568-0.986-2.508-1.313c-0.938-0.327-1.896-0.622-2.877-0.885
		s-1.939-0.521-2.877-0.772c-0.939-0.251-1.775-0.571-2.506-0.958c-0.732-0.387-1.326-0.869-1.779-1.444
		c-0.455-0.576-0.682-1.324-0.682-2.246c0-0.433,0.025-0.81,0.078-1.129c0.051-0.32,0.174-0.583,0.371-0.789
		c0.195-0.206,0.484-0.361,0.867-0.464c0.381-0.103,0.9-0.154,1.563-0.154c0.887,0,1.695,0.036,2.428,0.108
		c0.732,0.073,1.521,0.108,2.367,0.108c1.98,0,3.77-0.243,5.369-0.729c1.598-0.486,2.959-1.144,4.084-1.972
		c1.123-0.828,1.99-1.796,2.6-2.904c0.607-1.108,0.912-2.293,0.912-3.557c0-0.828-0.238-1.588-0.713-2.282
		c-0.475-0.693-1.139-1.314-1.994-1.863c-0.857-0.549-1.863-1.03-3.018-1.444c-1.156-0.414-2.414-0.761-3.775-1.04
		c-1.361-0.28-2.795-0.487-4.301-0.622c-1.506-0.134-3.031-0.202-4.578-0.202c-2.496,0-4.436,0.083-5.818,0.249
		c-1.896,0.208-3.666,0.534-5.307,0.979c-1.639,0.446-3.094,1.021-4.361,1.726C313.807,24.701,312.842,25.499,312.184,26.39z"/>
	<path fill="#FFFFFF" d="M375.52,60.988c-0.742,0.681-1.666,1.408-2.77,2.181s-2.295,1.485-3.574,2.135
		c-1.279,0.65-2.582,1.191-3.914,1.625c-1.33,0.433-2.594,0.65-3.789,0.65c-1.074,0-1.977-0.149-2.707-0.449
		c-0.732-0.299-1.326-0.716-1.779-1.253c-0.455-0.536-0.779-1.191-0.975-1.965c-0.197-0.773-0.295-1.625-0.295-2.553
		c0-1.299,0.145-2.815,0.434-4.548c0.594-3.584,0.977-5.597,1.146-6.04c0.281-0.881,0.844-2.833,1.688-5.855
		c0.781-2.464,1.266-4.067,1.449-4.811c0.102-0.521,0.385-0.991,0.852-1.408c0.426-0.375,0.906-0.683,1.443-0.923
		s1.096-0.417,1.672-0.532c0.578-0.115,1.1-0.172,1.566-0.172c0.852,0,1.428,0.16,1.732,0.479c0.305,0.32,0.457,0.748,0.457,1.284
		c0,0.454-0.107,1.095-0.318,1.924s-0.453,1.773-0.725,2.833s-0.672,2.422-1.203,4.088s-0.895,3.086-1.09,4.262
		c-0.195,1.176-0.441,2.344-0.738,3.503c-0.297,1.16-0.443,2.214-0.443,3.163c0,0.928,0.102,1.665,0.309,2.211
		s0.629,0.819,1.27,0.819c0.742,0,1.566-0.257,2.475-0.773c0.908-0.515,1.826-1.14,2.754-1.872c0.928-0.732,1.836-1.49,2.723-2.274
		c0.887-0.784,1.67-1.454,2.352-2.011V60.988z M361.689,28.517c0-0.479,0.102-1.02,0.309-1.624c0.205-0.604,0.541-1.171,1.006-1.702
		s1.082-0.979,1.855-1.343c0.773-0.364,1.738-0.547,2.895-0.547c0.721,0,1.402,0.084,2.041,0.25
		c0.639,0.167,1.197,0.422,1.672,0.766c0.473,0.343,0.85,0.796,1.129,1.358c0.277,0.562,0.418,1.229,0.418,1.999
		c0,0.708-0.113,1.396-0.34,2.062c-0.229,0.666-0.588,1.26-1.084,1.78c-0.494,0.521-1.119,0.942-1.871,1.265
		c-0.754,0.323-1.656,0.484-2.709,0.484c-1.814,0-3.154-0.432-4.021-1.296C362.121,31.104,361.689,29.954,361.689,28.517z"/>
	<path fill="#FFFFFF" d="M392.352,43.722c0.598,1.197,1.047,2.46,1.346,3.791s0.449,2.831,0.449,4.502
		c0,1.217-0.135,2.444-0.402,3.682c-0.268,1.237-0.654,2.434-1.16,3.589c-0.506,1.156-1.125,2.239-1.857,3.249
		c-0.732,1.011-1.566,1.887-2.506,2.63s-1.965,1.331-3.078,1.764s-2.301,0.65-3.559,0.65c-1.814,0-3.367-0.397-4.656-1.191
		c-1.289-0.793-2.348-1.83-3.172-3.109c-0.826-1.279-1.428-2.723-1.811-4.332c-0.381-1.609-0.572-3.238-0.572-4.889
		c0-2.723,0.34-5.069,1.021-7.039c0.68-1.97,1.654-3.682,2.924-5.136s2.82-2.599,4.656-3.435s3.898-1.253,6.189-1.253
		c1.959,0,3.795,0.304,5.508,0.913c1.711,0.608,3.314,1.423,4.811,2.444s2.887,2.305,4.178,3.852
		c1.289,1.547,2.49,3.022,3.604,4.425l-0.588,4.363c-0.557-0.743-1.311-1.547-2.258-2.414c-0.949-0.866-1.955-1.826-3.018-2.877
		c-1.063-1.052-2.109-1.944-3.141-2.676c-1.031-0.732-1.918-1.346-2.66-1.841L392.352,43.722z M382.791,61.637
		c0.701,0,1.381-0.355,2.041-1.067c0.66-0.711,1.238-1.609,1.734-2.692c0.494-1.083,0.891-2.393,1.189-3.93
		c0.299-1.536,0.449-2.903,0.449-4.1c0-0.949-0.072-1.831-0.217-2.646c-0.145-0.814-0.361-1.521-0.648-2.12
		c-0.289-0.598-0.662-1.072-1.115-1.423c-0.453-0.35-1-0.526-1.639-0.526c-0.848,0-1.65,0.361-2.414,1.083
		c-0.764,0.722-1.434,1.646-2.012,2.77c-0.578,1.125-1.031,2.367-1.361,3.728c-0.33,1.362-0.494,2.898-0.494,4.61
		c0,0.867,0.082,1.682,0.246,2.444c0.166,0.764,0.424,1.429,0.775,1.996c0.35,0.567,0.814,1.021,1.391,1.361
		C381.295,61.467,381.986,61.637,382.791,61.637z"/>
	<path fill="#FFFFFF" d="M400.025,61.111c0-1.361,0.082-2.934,0.248-4.719c0.164-1.784,0.371-3.744,0.619-5.878
		c0.246-2.135,0.525-4.059,0.834-5.771c0.311-1.712,0.609-3.176,0.898-4.394c0.227-0.949,0.664-1.743,1.314-2.382
		c0.65-0.639,1.531-0.959,2.646-0.959c1.113,0,1.887,0.34,2.32,1.021c0.432,0.681,0.648,1.588,0.648,2.723
		c0,0.31-0.029,0.727-0.092,1.253c-0.063,0.526-0.139,1.104-0.232,1.733c-0.092,0.629-0.191,1.279-0.293,1.949
		c-0.104,0.67-0.201,1.434-0.295,2.29c-0.092,0.856-0.17,1.496-0.232,1.918c-0.061,0.423-0.092,0.707-0.092,0.851h0.619
		c0.123-0.227,0.318-0.593,0.588-1.099c0.268-0.505,0.576-1.232,0.928-2.181c0.35-0.949,0.727-1.79,1.129-2.522
		c0.402-0.732,0.779-1.433,1.129-2.104c0.352-0.67,0.67-1.263,0.959-1.779s0.506-0.897,0.65-1.145c0.66-1.114,1.412-1.877,2.26-2.29
		c0.844-0.413,1.783-0.619,2.814-0.619s1.852,0.434,2.461,1.3c0.607,0.866,0.912,2.063,0.912,3.589c0,0.227-0.047,0.608-0.139,1.145
		c-0.094,0.537-0.213,1.176-0.357,1.918s-0.305,1.702-0.479,2.877c-0.176,1.176-0.336,2.228-0.48,3.156s-0.262,1.846-0.355,2.753
		c-0.092,0.908-0.139,1.744-0.139,2.506c0,1.279,0.16,2.332,0.479,3.156c0.32,0.825,0.82,1.238,1.502,1.238
		c0.246,0,0.598-0.093,1.051-0.279c0.682-0.248,1.115-0.464,1.301-0.649c0.906-0.701,1.381-1.042,1.422-1.021
		c0.063,0.021,0.754-0.392,2.074-1.237c1.65-1.052,3.619-2.341,5.91-3.868l-0.031,6.931l-1.547,1.176
		c-0.125,0.104-1.094,0.64-2.908,1.609c-2.621,1.403-4.26,2.249-4.92,2.537c-1.609,0.723-2.609,1.135-3.002,1.238
		c-1.031,0.33-2.115,0.495-3.248,0.495c-1.135,0-2.09-0.82-2.863-2.46c-0.773-1.64-1.16-4.038-1.16-7.194
		c0-1.238,0.082-2.573,0.248-4.007c0.164-1.434,0.371-2.975,0.619-4.626h-0.496l-8.105,16.09c-0.434,0.866-0.898,1.444-1.393,1.732
		c-0.516,0.31-1.115,0.464-1.795,0.464c-0.846,0-1.527-0.18-2.043-0.542c-0.516-0.361-0.912-0.846-1.191-1.454
		c-0.277-0.608-0.463-1.3-0.557-2.073C400.072,62.736,400.025,61.937,400.025,61.111z"/>
	<path fill="#FFFFFF" d="M448.852,60.988c-0.742,0.681-1.666,1.408-2.77,2.181s-2.295,1.485-3.574,2.135
		c-1.279,0.65-2.582,1.191-3.914,1.625c-1.33,0.433-2.594,0.65-3.789,0.65c-1.074,0-1.977-0.149-2.707-0.449
		c-0.732-0.299-1.326-0.716-1.779-1.253c-0.455-0.536-0.779-1.191-0.975-1.965c-0.197-0.773-0.295-1.625-0.295-2.553
		c0-1.299,0.145-2.815,0.434-4.548c0.594-3.584,0.977-5.597,1.146-6.04c0.281-0.881,0.844-2.833,1.688-5.855
		c0.781-2.464,1.266-4.067,1.449-4.811c0.102-0.521,0.385-0.991,0.852-1.408c0.426-0.375,0.906-0.683,1.443-0.923
		s1.096-0.417,1.672-0.532c0.578-0.115,1.1-0.172,1.566-0.172c0.852,0,1.428,0.16,1.732,0.479c0.305,0.32,0.457,0.748,0.457,1.284
		c0,0.454-0.107,1.095-0.318,1.924s-0.453,1.773-0.725,2.833s-0.672,2.422-1.203,4.088s-0.895,3.086-1.09,4.262
		c-0.195,1.176-0.441,2.344-0.738,3.503c-0.297,1.16-0.443,2.214-0.443,3.163c0,0.928,0.102,1.665,0.309,2.211
		s0.629,0.819,1.27,0.819c0.742,0,1.566-0.257,2.475-0.773c0.908-0.515,1.826-1.14,2.754-1.872c0.928-0.732,1.836-1.49,2.723-2.274
		c0.887-0.784,1.67-1.454,2.352-2.011V60.988z M435.021,28.517c0-0.479,0.102-1.02,0.309-1.624c0.205-0.604,0.541-1.171,1.006-1.702
		s1.082-0.979,1.855-1.343c0.773-0.364,1.738-0.547,2.895-0.547c0.721,0,1.402,0.084,2.041,0.25
		c0.639,0.167,1.197,0.422,1.672,0.766c0.473,0.343,0.85,0.796,1.129,1.358c0.277,0.562,0.418,1.229,0.418,1.999
		c0,0.708-0.113,1.396-0.34,2.062c-0.229,0.666-0.588,1.26-1.084,1.78c-0.494,0.521-1.119,0.942-1.871,1.265
		c-0.754,0.323-1.656,0.484-2.709,0.484c-1.814,0-3.154-0.432-4.021-1.296C435.453,31.104,435.021,29.954,435.021,28.517z"/>
	<path fill="#FFFFFF" d="M456.322,67.578c-1.91,0-3.586-0.351-5.029-1.052c-1.443-0.701-2.652-1.64-3.629-2.815
		s-1.713-2.537-2.211-4.084c-0.498-1.547-0.748-3.156-0.748-4.827c0-1.196,0.207-2.63,0.621-4.301
		c0.416-1.671,0.867-3.13,1.354-4.378c0.488-1.248,1.088-2.439,1.805-3.574c0.715-1.134,1.545-2.129,2.488-2.986
		c0.943-0.855,1.996-1.536,3.158-2.042c1.16-0.505,2.436-0.758,3.824-0.758c1.252,0,2.408,0.181,3.475,0.542
		c1.064,0.361,1.975,0.862,2.732,1.501c0.756,0.64,1.348,1.397,1.777,2.274c0.428,0.877,0.641,1.821,0.641,2.831
		c0,0.702-0.1,1.393-0.301,2.073s-0.592,1.48-1.172,2.398c-0.58,0.918-1.145,1.542-1.691,1.872c-0.547,0.33-1.166,0.495-1.857,0.495
		c-1.043,0-1.717-0.258-2.021-0.773c-0.5-0.805-0.656-1.516-0.473-2.135c0.063-0.33,0.246-1.093,0.555-2.29
		c0.041-0.165,0.051-0.536,0.031-1.114c0-0.495-0.053-0.908-0.154-1.238c-0.104-0.33-0.328-0.495-0.678-0.495
		c-0.842,0-1.561,0.201-2.156,0.604s-1.105,0.928-1.525,1.578c-0.42,0.649-0.836,1.568-1.248,2.753
		c-0.41,1.187-0.703,2.182-0.877,2.986c-0.176,0.805-0.283,1.573-0.324,2.305c-0.041,0.732-0.061,1.346-0.061,1.841
		c0,0.742,0.066,1.516,0.199,2.32c0.133,0.805,0.4,1.542,0.801,2.212c0.4,0.67,0.92,1.228,1.557,1.671
		c0.637,0.444,1.457,0.665,2.465,0.665c0.99,0,2.082-0.304,3.279-0.913c1.195-0.608,2.398-1.377,3.604-2.305
		c1.207-0.928,2.357-1.949,3.451-3.063c1.092-1.114,2.031-2.166,2.814-3.156l2.137,3.589c-1.549,2.208-3.219,4.177-5.014,5.91
		c-0.764,0.743-1.594,1.465-2.49,2.166c-0.898,0.702-1.836,1.326-2.816,1.872s-2,0.99-3.063,1.33S457.412,67.578,456.322,67.578z"/>
	<path fill="#FFFFFF" d="M469.123,55.9c1.156-1.001,2.094-1.835,2.816-2.502c0.723-0.667,1.443-1.444,2.166-2.33
		c0.721-0.886,1.295-1.611,1.717-2.174s0.924-1.23,1.5-2.002c0.578-0.771,1.279-1.715,2.105-2.831
		c0.824-1.115,1.896-2.507,3.217-4.175c0.268-0.375,0.568-0.74,0.898-1.095c0.33-0.354,0.695-0.672,1.098-0.954
		c0.402-0.281,0.846-0.51,1.33-0.688c0.484-0.177,1.027-0.266,1.625-0.266c0.99,0,1.754,0.11,2.291,0.329
		c0.537,0.219,0.928,0.485,1.176,0.797c0.248,0.313,0.393,0.641,0.434,0.985s0.063,0.641,0.063,0.892c0,0.5-0.197,1.053-0.588,1.657
		c-0.393,0.604-0.826,1.188-1.301,1.751s-0.924,1.08-1.346,1.548c-0.424,0.469-0.666,0.819-0.729,1.048
		c0,0.646,0.047,1.235,0.143,1.767c0.094,0.532,0.221,1.053,0.379,1.563c0.156,0.511,0.32,1.053,0.488,1.626
		c0.168,0.573,0.33,1.235,0.484,1.986c0.154,0.751,0.176,1.783,0.063,3.097c-0.113,1.314-0.17,2.638-0.17,3.972
		c0.742-0.5,1.541-0.954,2.396-1.36c0.857-0.407,1.75-0.829,2.678-1.267s1.881-0.922,2.861-1.454s1.965-1.173,2.955-1.924
		l0.031,7.006c-1.279,0.955-2.76,1.851-4.439,2.686c-1.682,0.835-3.449,1.572-5.305,2.208c-1.854,0.636-3.725,1.139-5.611,1.507
		c-1.889,0.368-3.678,0.552-5.369,0.552c-1.217,0-2.352-0.108-3.404-0.325c-1.051-0.217-1.975-0.558-2.768-1.021
		c-0.795-0.464-1.439-1.07-1.936-1.82c-0.494-0.75-0.793-1.657-0.896-2.722c-0.289,0.063-0.572,0.104-0.852,0.125
		c-0.277,0.021-0.551,0.031-0.82,0.031c-0.33,0-0.639-0.01-0.928-0.031s-0.537-0.099-0.742-0.234
		c-0.207-0.135-0.371-0.354-0.494-0.657c-0.125-0.302-0.188-0.735-0.188-1.298c0-0.5,0.125-0.965,0.373-1.392
		c0.246-0.427,0.535-0.808,0.865-1.142c0.33-0.333,0.66-0.625,0.99-0.875S468.959,56.046,469.123,55.9z M472.984,59.903
		c0.248,0,0.521,0.157,0.82,0.469c0.299,0.313,0.645,0.657,1.037,1.032c0.391,0.375,0.846,0.719,1.361,1.032
		s1.104,0.469,1.764,0.469c0.805,0,1.469-0.135,1.996-0.406c0.525-0.271,0.943-0.63,1.252-1.079c0.311-0.448,0.527-0.969,0.65-1.563
		s0.186-1.214,0.186-1.861c0-0.563-0.035-1.136-0.107-1.72c-0.074-0.584-0.063-1.309,0.029-2.174
		c0.094-0.865,0.072-1.532-0.061-2.001c-0.135-0.469-0.254-0.871-0.355-1.204L472.984,59.903z"/>
	<path fill="#FFFFFF" d="M511.736,25.502h-6.02V40.71h-3.041V25.502h-6.021V22.46h15.082V25.502z M529.67,22.587h4.246V40.71h-3.043
		V26.959l-5.322,11.09h-2.535l-5.322-11.09V40.71h-3.041V22.587h4.182l5.387,11.85L529.67,22.587z"/>
</g>
<g>
	<path fill="#FFFFFF" d="M217.199,111.982h-4.465l-1.221,5.076h4.24v2.697h-4.882l-1.51,6.231h-2.891l1.542-6.231h-4.657
		l-1.51,6.231h-2.891l1.574-6.231h-3.629v-2.697h4.24l1.221-5.076h-4.015v-2.505h4.657l1.51-6.296h2.891l-1.542,6.296h4.625
		l1.542-6.296h2.891l-1.574,6.296h3.854V111.982z M208.655,117.059l1.221-5.076h-4.658l-1.22,5.076H208.655z"/>
	<path fill="#FFFFFF" d="M224.554,109.928v16.06h-3.597v-22.806h2.826l13.041,16.446v-16.413h3.63v22.772h-2.987L224.554,109.928z"
		/>
	<path fill="#FFFFFF" d="M252.531,126.309c-1.307,0-2.495-0.23-3.565-0.69c-1.071-0.461-1.986-1.087-2.746-1.879
		c-0.76-0.792-1.349-1.713-1.767-2.763c-0.417-1.049-0.626-2.162-0.626-3.34s0.209-2.297,0.626-3.357
		c0.417-1.06,1.006-1.991,1.767-2.794c0.76-0.804,1.675-1.435,2.746-1.896c1.07-0.46,2.27-0.69,3.598-0.69
		c1.306,0,2.489,0.235,3.549,0.707c1.06,0.472,1.964,1.097,2.714,1.879c0.749,0.782,1.322,1.692,1.718,2.729
		c0.396,1.039,0.594,2.126,0.594,3.261c0,0.257-0.011,0.498-0.032,0.723s-0.043,0.412-0.064,0.563h-13.458
		c0.064,0.749,0.241,1.424,0.53,2.023s0.664,1.119,1.124,1.558c0.46,0.439,0.985,0.776,1.574,1.012
		c0.589,0.236,1.205,0.354,1.847,0.354c0.471,0,0.937-0.059,1.397-0.177c0.46-0.117,0.883-0.289,1.269-0.514
		c0.385-0.226,0.728-0.498,1.028-0.819c0.299-0.321,0.535-0.675,0.707-1.06l3.019,0.867c-0.578,1.264-1.537,2.296-2.875,3.1
		C255.866,125.907,254.308,126.309,252.531,126.309z M257.638,116.319c-0.064-0.706-0.241-1.36-0.53-1.96
		c-0.289-0.599-0.659-1.107-1.108-1.525s-0.975-0.744-1.574-0.979c-0.6-0.235-1.231-0.353-1.895-0.353
		c-0.664,0-1.291,0.117-1.879,0.353c-0.589,0.235-1.108,0.562-1.558,0.979s-0.814,0.927-1.092,1.525
		c-0.279,0.6-0.45,1.254-0.514,1.96H257.638z"/>
	<path fill="#FFFFFF" d="M268.301,125.987l-6.424-16.799h3.629L270.325,123l4.851-13.812h3.34l-6.424,16.799H268.301z"/>
	<path fill="#FFFFFF" d="M288.056,126.309c-1.307,0-2.495-0.23-3.565-0.69c-1.07-0.461-1.986-1.087-2.746-1.879
		s-1.35-1.713-1.767-2.763c-0.417-1.049-0.626-2.162-0.626-3.34s0.209-2.297,0.626-3.357c0.417-1.06,1.007-1.991,1.767-2.794
		c0.76-0.804,1.676-1.435,2.746-1.896c1.07-0.46,2.27-0.69,3.598-0.69c1.306,0,2.489,0.235,3.549,0.707
		c1.061,0.472,1.965,1.097,2.715,1.879c0.748,0.782,1.321,1.692,1.718,2.729c0.396,1.039,0.595,2.126,0.595,3.261
		c0,0.257-0.012,0.498-0.033,0.723s-0.043,0.412-0.063,0.563h-13.458c0.064,0.749,0.24,1.424,0.529,2.023s0.664,1.119,1.125,1.558
		c0.46,0.439,0.984,0.776,1.573,1.012c0.589,0.236,1.204,0.354,1.847,0.354c0.471,0,0.938-0.059,1.397-0.177
		c0.46-0.117,0.884-0.289,1.269-0.514c0.386-0.226,0.729-0.498,1.028-0.819s0.534-0.675,0.706-1.06l3.02,0.867
		c-0.578,1.264-1.537,2.296-2.875,3.1C291.391,125.907,289.832,126.309,288.056,126.309z M293.162,116.319
		c-0.064-0.706-0.24-1.36-0.529-1.96c-0.289-0.599-0.658-1.107-1.108-1.525s-0.975-0.744-1.573-0.979
		c-0.6-0.235-1.232-0.353-1.896-0.353c-0.664,0-1.29,0.117-1.879,0.353s-1.108,0.562-1.558,0.979
		c-0.45,0.418-0.814,0.927-1.092,1.525c-0.279,0.6-0.45,1.254-0.515,1.96H293.162z"/>
	<path fill="#FFFFFF" d="M308.997,112.24c-1.37,0.043-2.585,0.358-3.646,0.947c-1.061,0.59-1.814,1.43-2.264,2.521v10.278h-3.533
		v-16.799h3.275v3.759c0.578-1.156,1.333-2.083,2.265-2.779c0.932-0.695,1.933-1.076,3.003-1.141c0.214,0,0.391,0,0.53,0
		s0.262,0.012,0.369,0.033V112.24z"/>
	<path fill="#FFFFFF" d="M312.017,125.987v-22.806h15.192v3.181h-11.596v6.81h9.701v2.986h-9.701v9.829H312.017z"/>
	<path fill="#FFFFFF" d="M336.684,126.309c-1.307,0-2.494-0.23-3.564-0.69c-1.071-0.461-1.986-1.087-2.746-1.879
		c-0.761-0.792-1.35-1.713-1.768-2.763c-0.417-1.049-0.626-2.162-0.626-3.34s0.209-2.297,0.626-3.357
		c0.418-1.06,1.007-1.991,1.768-2.794c0.76-0.804,1.675-1.435,2.746-1.896c1.07-0.46,2.27-0.69,3.598-0.69
		c1.305,0,2.488,0.235,3.549,0.707c1.06,0.472,1.964,1.097,2.714,1.879c0.749,0.782,1.321,1.692,1.718,2.729
		c0.396,1.039,0.595,2.126,0.595,3.261c0,0.257-0.011,0.498-0.032,0.723s-0.043,0.412-0.064,0.563h-13.458
		c0.064,0.749,0.241,1.424,0.53,2.023s0.664,1.119,1.124,1.558c0.46,0.439,0.985,0.776,1.573,1.012
		c0.59,0.236,1.205,0.354,1.848,0.354c0.471,0,0.937-0.059,1.396-0.177c0.461-0.117,0.884-0.289,1.27-0.514
		c0.385-0.226,0.728-0.498,1.027-0.819s0.535-0.675,0.707-1.06l3.02,0.867c-0.578,1.264-1.537,2.296-2.875,3.1
		C340.02,125.907,338.461,126.309,336.684,126.309z M341.791,116.319c-0.064-0.706-0.24-1.36-0.529-1.96
		c-0.289-0.599-0.659-1.107-1.109-1.525c-0.449-0.418-0.975-0.744-1.573-0.979c-0.6-0.235-1.231-0.353-1.896-0.353
		s-1.29,0.117-1.879,0.353s-1.107,0.562-1.558,0.979s-0.813,0.927-1.092,1.525c-0.278,0.6-0.45,1.254-0.515,1.96H341.791z"/>
	<path fill="#FFFFFF" d="M355.795,126.309c-1.307,0-2.495-0.23-3.565-0.69c-1.071-0.461-1.986-1.087-2.746-1.879
		c-0.761-0.792-1.349-1.713-1.767-2.763c-0.418-1.049-0.627-2.162-0.627-3.34s0.209-2.297,0.627-3.357
		c0.418-1.06,1.006-1.991,1.767-2.794c0.76-0.804,1.675-1.435,2.746-1.896c1.07-0.46,2.27-0.69,3.598-0.69
		c1.306,0,2.489,0.235,3.549,0.707s1.964,1.097,2.714,1.879s1.322,1.692,1.719,2.729c0.396,1.039,0.594,2.126,0.594,3.261
		c0,0.257-0.01,0.498-0.031,0.723s-0.043,0.412-0.064,0.563h-13.459c0.064,0.749,0.242,1.424,0.531,2.023s0.663,1.119,1.123,1.558
		c0.461,0.439,0.985,0.776,1.574,1.012c0.589,0.236,1.205,0.354,1.848,0.354c0.471,0,0.936-0.059,1.396-0.177
		c0.461-0.117,0.883-0.289,1.27-0.514c0.385-0.226,0.727-0.498,1.027-0.819c0.299-0.321,0.535-0.675,0.707-1.06l3.019,0.867
		c-0.578,1.264-1.536,2.296-2.874,3.1C359.13,125.907,357.572,126.309,355.795,126.309z M360.902,116.319
		c-0.064-0.706-0.241-1.36-0.53-1.96c-0.289-0.599-0.659-1.107-1.108-1.525s-0.975-0.744-1.574-0.979s-1.23-0.353-1.895-0.353
		s-1.291,0.117-1.879,0.353c-0.59,0.235-1.108,0.562-1.559,0.979c-0.449,0.418-0.813,0.927-1.092,1.525
		c-0.278,0.6-0.449,1.254-0.514,1.96H360.902z"/>
	<path fill="#FFFFFF" d="M367.325,102.54h3.533v18.598c0,0.621,0.161,1.107,0.481,1.461c0.322,0.354,0.771,0.53,1.35,0.53
		c0.235,0,0.508-0.043,0.818-0.129c0.311-0.085,0.605-0.182,0.884-0.289l0.515,2.763c-0.515,0.235-1.125,0.423-1.832,0.562
		c-0.706,0.14-1.338,0.209-1.895,0.209c-1.221,0-2.168-0.332-2.843-0.995c-0.675-0.664-1.012-1.606-1.012-2.827V102.54z"/>
	<path fill="#FFFFFF" d="M395.334,120.109c0,0.921-0.188,1.745-0.563,2.474c-0.375,0.728-0.878,1.344-1.51,1.847
		c-0.631,0.503-1.376,0.889-2.232,1.156s-1.766,0.401-2.73,0.401h-10.888v-22.806h11.755c0.793,0,1.51,0.172,2.152,0.515
		s1.189,0.786,1.639,1.333c0.449,0.546,0.797,1.167,1.044,1.863c0.245,0.695,0.369,1.396,0.369,2.104
		c0,1.113-0.284,2.157-0.851,3.131c-0.568,0.975-1.377,1.697-2.426,2.169c1.307,0.386,2.34,1.087,3.1,2.104
		C394.953,117.417,395.334,118.653,395.334,120.109z M381.008,106.298v6.713h6.617c0.449,0,0.861-0.085,1.236-0.257
		c0.375-0.171,0.707-0.401,0.996-0.69s0.514-0.638,0.674-1.044c0.161-0.406,0.242-0.856,0.242-1.35c0-0.984-0.279-1.793-0.836-2.424
		c-0.557-0.632-1.264-0.948-2.119-0.948H381.008z M391.641,119.435c0-0.471-0.081-0.92-0.242-1.349
		c-0.16-0.428-0.375-0.803-0.642-1.125c-0.269-0.32-0.595-0.578-0.979-0.77c-0.386-0.193-0.803-0.289-1.253-0.289h-7.517v6.97h7.291
		c0.471,0,0.91-0.091,1.317-0.273c0.407-0.182,0.761-0.428,1.06-0.738c0.301-0.311,0.535-0.675,0.707-1.093
		C391.555,120.351,391.641,119.906,391.641,119.435z"/>
	<path fill="#FFFFFF" d="M408.085,112.24c-1.37,0.043-2.585,0.358-3.646,0.947c-1.061,0.59-1.814,1.43-2.264,2.521v10.278h-3.533
		v-16.799h3.275v3.759c0.578-1.156,1.333-2.083,2.265-2.779c0.932-0.695,1.933-1.076,3.003-1.141c0.214,0,0.391,0,0.53,0
		s0.262,0.012,0.369,0.033V112.24z"/>
	<path fill="#FFFFFF" d="M417.367,126.309c-1.327,0-2.521-0.236-3.58-0.707c-1.061-0.471-1.965-1.103-2.715-1.895
		s-1.328-1.719-1.734-2.778c-0.407-1.061-0.61-2.168-0.61-3.325c0-1.156,0.203-2.264,0.61-3.324c0.406-1.06,0.99-1.985,1.75-2.777
		c0.76-0.793,1.671-1.424,2.73-1.896c1.061-0.472,2.243-0.707,3.549-0.707c1.307,0,2.49,0.235,3.551,0.707
		c1.059,0.472,1.969,1.103,2.729,1.896c0.76,0.792,1.344,1.718,1.752,2.777c0.406,1.061,0.609,2.168,0.609,3.324
		c0,1.157-0.203,2.265-0.609,3.325c-0.408,1.06-0.992,1.986-1.752,2.778s-1.67,1.424-2.729,1.895
		C419.857,126.072,418.674,126.309,417.367,126.309z M412.357,117.637c0,0.813,0.128,1.563,0.385,2.248
		c0.258,0.686,0.611,1.279,1.061,1.782c0.449,0.504,0.979,0.899,1.59,1.188c0.609,0.289,1.269,0.434,1.975,0.434
		c0.707,0,1.365-0.145,1.977-0.434c0.609-0.289,1.139-0.69,1.59-1.204c0.449-0.514,0.803-1.113,1.059-1.799
		c0.258-0.686,0.387-1.435,0.387-2.249c0-0.791-0.129-1.535-0.387-2.232c-0.256-0.695-0.609-1.301-1.059-1.814
		c-0.451-0.514-0.98-0.915-1.59-1.204c-0.611-0.289-1.27-0.434-1.977-0.434c-0.686,0-1.332,0.149-1.943,0.45
		c-0.609,0.299-1.14,0.706-1.59,1.22c-0.449,0.515-0.809,1.119-1.075,1.815C412.49,116.1,412.357,116.844,412.357,117.637z"/>
	<path fill="#FFFFFF" d="M440.848,125.987l-5.365-7.741l-2.793,2.634v5.107h-3.533V102.54h3.533v14.871l7.709-8.19h3.854
		l-6.52,7.034l6.873,9.732H440.848z"/>
	<path fill="#FFFFFF" d="M453.502,126.309c-1.307,0-2.494-0.23-3.564-0.69c-1.072-0.461-1.986-1.087-2.746-1.879
		c-0.762-0.792-1.35-1.713-1.768-2.763c-0.418-1.049-0.625-2.162-0.625-3.34s0.207-2.297,0.625-3.357
		c0.418-1.06,1.006-1.991,1.768-2.794c0.76-0.804,1.674-1.435,2.746-1.896c1.07-0.46,2.27-0.69,3.598-0.69
		c1.305,0,2.488,0.235,3.549,0.707s1.965,1.097,2.713,1.879c0.75,0.782,1.322,1.692,1.719,2.729
		c0.396,1.039,0.596,2.126,0.596,3.261c0,0.257-0.012,0.498-0.033,0.723s-0.043,0.412-0.064,0.563h-13.457
		c0.063,0.749,0.24,1.424,0.529,2.023s0.664,1.119,1.125,1.558c0.459,0.439,0.984,0.776,1.572,1.012
		c0.59,0.236,1.205,0.354,1.848,0.354c0.471,0,0.936-0.059,1.396-0.177c0.461-0.117,0.885-0.289,1.27-0.514
		c0.385-0.226,0.729-0.498,1.027-0.819c0.301-0.321,0.535-0.675,0.707-1.06l3.02,0.867c-0.578,1.264-1.537,2.296-2.875,3.1
		C456.838,125.907,455.279,126.309,453.502,126.309z M458.609,116.319c-0.064-0.706-0.24-1.36-0.529-1.96
		c-0.289-0.599-0.658-1.107-1.109-1.525c-0.449-0.418-0.975-0.744-1.574-0.979s-1.23-0.353-1.895-0.353s-1.289,0.117-1.879,0.353
		s-1.107,0.562-1.557,0.979c-0.451,0.418-0.814,0.927-1.094,1.525c-0.277,0.6-0.449,1.254-0.514,1.96H458.609z"/>
	<path fill="#FFFFFF" d="M480.064,125.987h-3.533v-9.411c0-1.584-0.252-2.735-0.754-3.453c-0.504-0.717-1.248-1.076-2.232-1.076
		c-0.516,0-1.029,0.097-1.543,0.289c-0.514,0.193-0.996,0.467-1.445,0.819c-0.449,0.354-0.852,0.771-1.205,1.253
		c-0.352,0.482-0.625,1.012-0.818,1.59v9.989H465v-16.799h3.213v3.372c0.643-1.135,1.572-2.027,2.793-2.682
		c1.221-0.652,2.57-0.979,4.049-0.979c1.006,0,1.83,0.183,2.473,0.546c0.643,0.365,1.15,0.862,1.525,1.494
		c0.375,0.631,0.637,1.359,0.787,2.184c0.148,0.824,0.225,1.697,0.225,2.618V125.987z"/>
</g>
<g id="Dark" display="none">
	<path display="inline" fill-rule="evenodd" clip-rule="evenodd" d="M71.012,43.014c0.933-2.09,1.74-3.964,2.597-5.814
		c2.881-6.224,5.798-12.431,8.662-18.661c1.041-2.265,2.219-4.436,3.617-6.499c3.262-4.811,11.997-4.778,15.01,0.714
		c2.063,3.757,1.719,7.232,0.353,11.032c-1.563,4.346-3.575,8.502-5.087,12.871c-1.18,3.412-2.826,6.661-4.25,9.99
		c-0.293,0.688-0.514,1.407-0.767,2.112c0.146,0.075,0.294,0.151,0.439,0.226c1.033-1.672,2.069-3.342,3.097-5.017
		c3.26-5.317,6.109-10.89,9.912-15.87c1.156-1.514,2.555-2.429,4.557-2.303c1.43,0.09,2.872,0.079,4.303-0.001
		c1.363-0.075,2.285,0.579,3.355,1.338c3.709,2.636,2.742,6.399,2.59,9.947c-0.068,1.611-0.926,3.04-1.638,4.471
		c-2.768,5.553-5.55,11.1-8.306,16.66c-0.271,0.547-0.838,1.047-0.521,1.797c2.904-2.682,5.025-6.002,7.638-8.906
		c2.096-2.332,4.357-3.349,7.503-3.131c1.922,0.133,3.422,0.591,4.736,1.976c1.887,1.988,2.563,5.788,1.396,8.333
		c-1.572,3.436-4.098,6.244-6.17,9.348c-4.422,6.623-9.014,13.131-13.557,19.67c-1.086,1.563-2.244,3.074-3.4,4.582
		c-0.721,0.939-1.6,1.566-2.904,1.379c-1.196-0.169-1.141,0.707-1.141,1.517c-0.006,3.283-0.375,6.539-1.319,9.674
		c-1.882,6.235-5.913,10.91-11.063,14.729c-4.438,3.291-9.801,4.525-14.74,6.702c-6.278,2.77-12.834,4.779-19.338,6.929
		c-2.7,0.895-5.348,1.98-8.095,2.683c-4.47,1.145-6.19,0.791-8.309-3.451c-3.428-6.866-6.49-13.882-8.911-21.207
		c-1.714-5.185-3.553-10.314-4.744-15.652c-0.861-3.86-1.1-7.769-0.938-11.706c0.046-1.117-0.113-1.753-1.508-1.756
		c-1.549-0.003-2.402-1.19-2.861-2.541c-1.94-5.719-3.914-11.428-5.714-17.19c-1.119-3.584-2.467-7.085-2.21-11.049
		c0.239-3.694,4.484-7.509,7.375-7.549c0.657-0.008,1.329,0.087,1.97-0.016c4.477-0.719,6.835,2.022,8.656,5.419
		c2.021,3.768,3.87,7.63,5.751,11.471c0.55,1.124,0.94,1.676,2.391,0.871c2.215-1.229,4.668-2.023,7.225-2.322
		c0.822-0.098,1.154-0.516,1.147-1.293c-0.003-0.359,0.034-0.721-0.001-1.076c-0.327-3.287,0.909-6.252,1.857-9.287
		c0.635-2.035,1.108-4.121,1.655-6.183c1.603-6.053,3.155-12.119,5.057-18.088c0.971-3.05,1.518-6.22,2.824-9.183
		c1.737-3.947,3.917-5.236,8.239-5.53c3.885-0.266,6.516,1.129,8.327,4.478c0.441,0.816,0.67,1.59,0.764,2.508
		c0.512,4.981-0.918,9.638-2.247,14.321c-1.084,3.816-2.135,7.642-3.229,11.455C70.872,41.545,70.615,42.117,71.012,43.014z
		 M53.512,129.103c0.966,0.222,1.662-0.524,2.485-0.776c4.394-1.343,8.886-2.441,12.964-4.664c0.476-0.219,0.953-0.438,1.428-0.658
		c1.04,0.374,1.809-0.369,2.629-0.72c3.542-1.516,7.321-2.482,10.623-4.559c0.703-0.097,1.395-0.157,2.053-0.528
		c3.703-2.083,6.791-4.84,9.115-8.393c3.951-6.043,5.148-12.652,3.439-19.64c-1.562-6.381-5.152-11.325-11.326-14.054
		c-3.746-1.655-7.639-1.71-11.509-0.541c-3.731,1.126-4.389-0.343-5.368-3.014c-0.287-0.783-0.502-1.566-1.054-2.232
		c-4.648-5.608-10.855-7.354-17.807-7.091c-2.553,0.097-5.024,0.807-7.447,1.652c-9.132,3.183-13.627,10.051-14.224,19.589
		c-0.41,6.564,1.516,12.718,3.376,18.872c0.553,1.829,0.624,3.922,2.382,5.22c-0.279,0.206-0.283,0.446-0.194,0.776
		c2.105,7.781,5.825,14.898,9.146,22.18c0.471,1.033,1.313,1.327,2.367,0.97c1.629-0.551,3.25-1.127,4.874-1.693
		C52.291,129.993,52.921,129.608,53.512,129.103z M98.314,18.502c0.621-1.725-0.509-2.949-1.412-4.155
		c-1.688-2.252-4.441-2.462-6.668-0.74c-1.712,1.324-2.479,3.263-3.381,5.079c-2.455,4.942-4.715,9.978-6.959,15.023
		c-2.988,6.717-6.13,13.367-9.278,20.011c-0.522,1.103-1.12,2.22-2.03,3.113c-0.764,0.751-1.669,0.97-2.618,0.642
		c-0.945-0.328-1.611-1.074-1.706-2.104c-0.182-1.953-0.277-3.938,0.239-5.844c2.316-8.549,4.729-17.072,7.022-25.626
		c0.597-2.223,1.468-4.382,1.417-6.783c-0.044-2.124-2.15-4.873-4.277-5.266c-2.159-0.398-4.729,1.148-5.688,3.397
		c-0.631,1.48-1.051,3.025-1.481,4.574c-1.552,5.599-3.206,11.169-4.789,16.758c-1.551,5.475-3.002,10.979-4.614,16.435
		c-0.977,3.304-1.665,5.536,3.679,5.536c6.828,0.002,12.517,2.82,16.475,8.48c1.532,2.192,3.181,3.23,5.883,2.924
		c2.824-0.32,5.714-0.338,8.452,0.57c8.641,2.87,13.348,9.292,15.729,17.734c0.158,0.565,0.053,1.227,0.863,1.367
		c0.801,0.14,0.994-0.525,1.316-0.985c1.293-1.858,2.556-3.734,3.848-5.587c5.799-8.326,11.615-16.635,17.393-24.971
		c1.471-2.119,1.438-4.257,0.061-5.479c-1.693-1.506-3.979-1.222-5.73,0.811c-3.758,4.357-7.453,8.77-11.216,13.123
		c-1.86,2.153-3.481,4.539-5.823,6.244c-1.697,1.232-3.471,0.831-4.098-0.986c-0.379-1.098,0.252-2.086,0.707-3.023
		c2.141-4.418,4.369-8.793,6.488-13.221c1.333-2.783,2.598-5.623,4.019-8.338c1.759-3.361,3.463-6.752,5.142-10.151
		c1.447-2.931,0.619-6.25-1.739-7.172c-2.151-0.84-5.012-0.98-7.094,2.477c-3.069,5.098-6.041,10.254-9.146,15.331
		c-2.378,3.887-4.692,7.813-7.153,11.646c-1.378,2.148-2.48,4.486-4.236,6.382c-1.41,1.526-2.999,1.345-4.066-0.439
		c-0.611-1.022-0.367-2.046-0.119-3.103c1.294-5.517,3.854-10.562,5.923-15.783c3.044-7.684,6.31-15.279,9.353-22.961
		C97.619,21.885,98.867,20.434,98.314,18.502z M23.053,46.973c-3.793,0.014-6.648,3.607-5.74,7.132
		c0.399,1.548,0.95,3.059,1.448,4.581c2.013,6.147,4.032,12.293,6.047,18.439c0.127,0.389,0.159,0.908,0.667,0.946
		c0.605,0.049,0.505-0.58,0.639-0.915c1.172-2.937,2.399-5.846,4.276-8.418c1.009-1.382,2.066-2.732,3.173-4.034
		c0.446-0.526,0.599-0.945,0.277-1.579c-2.293-4.509-4.183-9.225-6.839-13.54C26.115,48.144,25.05,46.631,23.053,46.973z"/>
	<path display="inline" fill-rule="evenodd" clip-rule="evenodd" fill="#ED905E" d="M98.314,18.502
		c0.553,1.931-0.695,3.383-1.313,4.94c-3.043,7.683-6.309,15.278-9.353,22.961c-2.069,5.222-4.629,10.267-5.923,15.783
		c-0.248,1.057-0.492,2.08,0.119,3.103c1.067,1.784,2.656,1.966,4.066,0.439c1.756-1.896,2.858-4.233,4.236-6.382
		c2.461-3.833,4.775-7.76,7.153-11.646c3.105-5.077,6.077-10.233,9.146-15.331c2.082-3.458,4.942-3.317,7.094-2.477
		c2.358,0.922,3.187,4.242,1.739,7.172c-1.679,3.398-3.383,6.79-5.142,10.151c-1.421,2.715-2.686,5.555-4.019,8.338
		c-2.119,4.428-4.348,8.803-6.488,13.221c-0.455,0.938-1.086,1.926-0.707,3.023c0.627,1.817,2.4,2.219,4.098,0.986
		c2.342-1.705,3.963-4.091,5.823-6.244c3.763-4.354,7.458-8.766,11.216-13.123c1.752-2.032,4.037-2.316,5.73-0.811
		c1.377,1.222,1.41,3.359-0.061,5.479c-5.777,8.336-11.594,16.645-17.393,24.971c-1.292,1.853-2.555,3.729-3.848,5.587
		c-0.322,0.46-0.516,1.125-1.316,0.985c-0.811-0.141-0.705-0.802-0.863-1.367c-2.382-8.442-7.089-14.864-15.729-17.734
		c-2.738-0.908-5.628-0.891-8.452-0.57c-2.702,0.307-4.351-0.731-5.883-2.924c-3.958-5.66-9.647-8.479-16.475-8.48
		c-5.344,0-4.656-2.232-3.679-5.536c1.611-5.456,3.063-10.959,4.614-16.435c1.583-5.589,3.236-11.16,4.789-16.758
		c0.43-1.549,0.85-3.094,1.481-4.574c0.958-2.249,3.529-3.795,5.688-3.397c2.126,0.394,4.233,3.143,4.277,5.266
		c0.05,2.401-0.821,4.56-1.417,6.783c-2.293,8.554-4.706,17.078-7.022,25.626c-0.517,1.906-0.421,3.891-0.239,5.844
		c0.095,1.029,0.761,1.775,1.706,2.104c0.949,0.328,1.854,0.109,2.618-0.642c0.91-0.894,1.507-2.011,2.03-3.113
		c3.148-6.645,6.29-13.294,9.278-20.011c2.244-5.045,4.504-10.081,6.959-15.023c0.902-1.815,1.669-3.755,3.381-5.079
		c2.227-1.722,4.98-1.512,6.668,0.74C97.806,15.553,98.936,16.778,98.314,18.502z"/>
	<path display="inline" fill-rule="evenodd" clip-rule="evenodd" fill="#CC649C" d="M35.271,107.566
		c-1.758-1.298-1.829-3.391-2.382-5.22c-1.86-6.154-3.786-12.308-3.376-18.872c0.597-9.538,5.092-16.406,14.224-19.589
		c2.422-0.846,4.894-1.556,7.447-1.652c6.952-0.263,13.159,1.482,17.807,7.091c0.552,0.666,0.767,1.449,1.054,2.232
		c0.979,2.671,1.637,4.14,5.368,3.014c3.87-1.169,7.763-1.114,11.509,0.541c6.174,2.729,9.765,7.673,11.326,14.054
		c1.709,6.987,0.512,13.597-3.439,19.64c-2.324,3.553-5.412,6.31-9.115,8.393c-0.658,0.371-1.35,0.432-2.053,0.528
		c-0.353-0.247-0.675-0.541-0.668-1c0.03-2.267-0.243-4.546,0.137-6.795c0.447-2.645-0.351-3.913-2.951-4.575
		c-2.089-0.532-4.145-0.082-6.222,0.071c-3.217,0.234-3.163,0.185-3.245,3.44c-0.12,4.713,0.345,9.435-0.302,14.137
		c-0.476,0.22-0.952,0.439-1.428,0.658c-1.242-0.392-1.053-1.409-1.05-2.364c0.021-7.889,0.046-15.779,0.042-23.67
		c0-2.335-0.827-3.325-2.895-3.18c-3.287,0.229-6.553,0.198-9.839-0.009c-2.167-0.136-2.74,0.59-2.749,2.759
		c-0.007,1.734,0.07,3.472-0.022,5.199c-0.081,1.525,0.432,2.284,2.027,2.531c1.892,0.291,2.342,1.237,2.077,3.198
		c-0.558,4.127-0.958,8.28-1.592,12.396c-0.442,2.865-0.145,5.86-1.447,8.58c-0.59,0.506-1.221,0.891-2.05,0.696
		c0.95-5.919,1.406-11.907,2.517-17.806c0.672-3.571-0.14-4.494-3.69-4.332c-4.763,0.002-9.526,0.002-14.289,0.005
		C35.756,107.635,35.513,107.601,35.271,107.566z M77.225,102.217c4.502,0.009,6.807-2.143,6.814-6.358
		c0.01-4.193-2.396-6.39-6.688-6.613c-4.207-0.219-6.853,3.387-6.886,6.633C70.428,99.45,73.029,102.576,77.225,102.217z
		 M49.618,95.857c0.009-3.167-1.538-5.984-3.723-6.782c-3.298-1.202-6.693,0.202-8.228,3.402c-1.57,3.272-0.35,7.86,2.525,9.494
		C44.804,104.592,49.602,101.479,49.618,95.857z M60.485,91.44c3.748-0.007,5.799-1.11,6.655-3.643
		c0.878-2.592,0.415-4.949-1.456-6.951c-2.026-2.169-4.635-2.376-7.271-1.682c-3.423,0.901-4.858,3.959-4.159,8.316
		C54.692,90.205,56.645,91.444,60.485,91.44z"/>
	<path display="inline" fill-rule="evenodd" clip-rule="evenodd" d="M53.512,129.103c1.303-2.72,1.005-5.715,1.447-8.58
		c0.634-4.115,1.034-8.269,1.592-12.396c0.265-1.961-0.186-2.907-2.077-3.198c-1.596-0.247-2.108-1.006-2.027-2.531
		c0.093-1.728,0.016-3.465,0.022-5.199c0.009-2.169,0.583-2.895,2.749-2.759c3.286,0.207,6.552,0.238,9.839,0.009
		c2.068-0.146,2.895,0.845,2.895,3.18c0.004,7.891-0.021,15.781-0.042,23.67c-0.002,0.955-0.191,1.973,1.05,2.364
		c-4.079,2.223-8.571,3.321-12.964,4.664C55.173,128.578,54.478,129.324,53.512,129.103z"/>
	<path display="inline" fill-rule="evenodd" clip-rule="evenodd" d="M35.271,107.566c0.243,0.034,0.486,0.068,0.729,0.1
		c0.508,0.458,1.131,0.271,1.707,0.274c3.328,0.018,6.656,0.032,9.983-0.004c0.865-0.011,1.784,0.281,2.599-0.275
		c3.55-0.162,4.362,0.761,3.69,4.332c-1.11,5.898-1.566,11.887-2.517,17.806c-1.623,0.566-3.244,1.143-4.873,1.693
		c-1.054,0.357-1.896,0.063-2.367-0.97c-3.321-7.281-7.04-14.398-9.146-22.18C34.988,108.013,34.991,107.772,35.271,107.566z"/>
	<path display="inline" fill-rule="evenodd" clip-rule="evenodd" fill="#ED905E" d="M23.053,46.973
		c1.997-0.342,3.062,1.171,3.949,2.612c2.656,4.315,4.546,9.031,6.839,13.54c0.322,0.634,0.169,1.053-0.277,1.579
		c-1.107,1.302-2.164,2.652-3.173,4.034c-1.877,2.572-3.104,5.481-4.276,8.418c-0.133,0.335-0.034,0.964-0.639,0.915
		c-0.508-0.038-0.54-0.558-0.667-0.946c-2.016-6.146-4.035-12.292-6.047-18.439c-0.499-1.522-1.049-3.033-1.448-4.581
		C16.405,50.58,19.26,46.986,23.053,46.973z"/>
	<path display="inline" fill-rule="evenodd" clip-rule="evenodd" d="M70.389,123.004c0.647-4.702,0.182-9.424,0.302-14.137
		c0.082-3.256,0.028-3.206,3.245-3.44c2.078-0.153,4.133-0.604,6.222-0.071c2.601,0.662,3.398,1.931,2.951,4.575
		c-0.38,2.249-0.106,4.528-0.137,6.795c-0.007,0.459,0.315,0.753,0.668,1c-3.302,2.076-7.08,3.043-10.623,4.559
		C72.198,122.635,71.429,123.378,70.389,123.004z"/>
	<path display="inline" fill-rule="evenodd" clip-rule="evenodd" d="M77.225,102.217c-4.195,0.359-6.797-2.767-6.759-6.339
		c0.033-3.246,2.679-6.852,6.886-6.633c4.291,0.224,6.697,2.42,6.688,6.613C84.031,100.074,81.727,102.226,77.225,102.217z"/>
	<path display="inline" fill-rule="evenodd" clip-rule="evenodd" d="M49.618,95.857c-0.017,5.622-4.814,8.734-9.426,6.114
		c-2.875-1.634-4.096-6.222-2.525-9.494c1.535-3.2,4.93-4.604,8.228-3.402C48.081,89.873,49.627,92.69,49.618,95.857z"/>
	<path display="inline" fill-rule="evenodd" clip-rule="evenodd" d="M60.485,91.44c-3.84,0.004-5.793-1.235-6.23-3.959
		c-0.699-4.357,0.735-7.415,4.159-8.316c2.636-0.694,5.245-0.487,7.271,1.682c1.871,2.002,2.333,4.359,1.456,6.951
		C66.284,90.33,64.232,91.434,60.485,91.44z"/>
	<path display="inline" fill-rule="evenodd" clip-rule="evenodd" d="M50.288,107.661c-0.815,0.557-1.734,0.265-2.599,0.275
		c-3.327,0.036-6.655,0.021-9.983,0.004c-0.575-0.003-1.199,0.184-1.707-0.274C40.762,107.663,45.525,107.663,50.288,107.661z"/>
</g>
<g>
	<path fill="#FFFFFF" d="M132.12,29.729c-1.532,0-2.939-0.263-4.222-0.79c-1.283-0.526-2.398-1.254-3.346-2.183
		c-0.948-0.928-1.686-2.025-2.212-3.289c-0.527-1.264-0.79-2.643-0.79-4.136c0-1.474,0.263-2.843,0.79-4.107
		c0.526-1.264,1.264-2.355,2.212-3.274c0.948-0.919,2.063-1.642,3.346-2.168c1.283-0.526,2.69-0.79,4.222-0.79
		c1.512,0,2.916,0.263,4.208,0.79c1.292,0.527,2.408,1.25,3.346,2.168c0.938,0.919,1.675,2.011,2.211,3.274
		c0.536,1.264,0.804,2.633,0.804,4.107c0,1.494-0.268,2.873-0.804,4.136s-1.273,2.36-2.211,3.289
		c-0.938,0.929-2.054,1.657-3.346,2.183C135.035,29.465,133.632,29.729,132.12,29.729z M132.12,28.809
		c1.34,0,2.589-0.229,3.749-0.689c1.158-0.46,2.168-1.101,3.03-1.925c0.861-0.823,1.537-1.814,2.025-2.973
		c0.488-1.158,0.732-2.446,0.732-3.863c0-1.34-0.24-2.585-0.718-3.734c-0.479-1.149-1.145-2.145-1.996-2.987
		c-0.853-0.842-1.858-1.503-3.016-1.982c-1.159-0.478-2.427-0.718-3.806-0.718s-2.652,0.24-3.82,0.718
		c-1.168,0.479-2.173,1.14-3.016,1.982c-0.843,0.843-1.503,1.834-1.982,2.973c-0.479,1.139-0.718,2.379-0.718,3.719
		c0,1.36,0.239,2.614,0.718,3.763c0.479,1.149,1.139,2.15,1.982,3.001c0.842,0.853,1.848,1.518,3.016,1.997
		S130.741,28.809,132.12,28.809z M127.725,12.868h5.486c0.555,0,1.072,0.12,1.551,0.359c0.479,0.24,0.89,0.556,1.235,0.948
		c0.345,0.393,0.613,0.833,0.804,1.321s0.288,0.981,0.288,1.479c0,0.938-0.273,1.776-0.819,2.513
		c-0.546,0.737-1.259,1.192-2.14,1.364l3.188,5.026h-1.666l-3.044-4.825h-3.36v4.825h-1.522V12.868z M133.211,19.733
		c0.785,0,1.379-0.263,1.781-0.79c0.402-0.526,0.604-1.182,0.604-1.967c0-0.804-0.235-1.46-0.704-1.968
		c-0.47-0.507-1.068-0.761-1.795-0.761h-3.849v5.486H133.211z"/>
</g>
<g>
</g>
<g>
</g>
<g>
</g>
<g>
</g>
<g>
</g>
<g>
</g>
</svg>
